<svg xmlns="http://www.w3.org/2000/svg" xmlns:xlink="http://www.w3.org/1999/xlink" width="1920" zoomAndPan="magnify" viewBox="0 0 1440 809.999993" height="1080" preserveAspectRatio="xMidYMid meet" version="1.2"><defs/><g id="021c5ac4fc"><g style="fill:#f9e223;fill-opacity:0.4;"><g transform="translate(50.244403, 621.727594)"><path style="stroke:none" d="M 286.3125 6.75 C 213.382812 6.75 151.035156 -16.320312 99.265625 -62.46875 C 47.492188 -108.613281 21.609375 -164.320312 21.609375 -229.59375 C 21.609375 -294.875 47.039062 -350.582031 97.90625 -396.71875 C 148.78125 -442.863281 210.910156 -465.9375 284.296875 -465.9375 C 341.015625 -465.9375 387.832031 -454.910156 424.75 -432.859375 L 424.75 -307.25 C 392.789062 -342.363281 350.472656 -360.375 297.796875 -361.28125 C 253.234375 -362.175781 214.96875 -350.691406 183 -326.828125 C 151.039062 -302.972656 135.285156 -270.5625 135.734375 -229.59375 C 135.734375 -186.820312 151.710938 -153.503906 183.671875 -129.640625 C 215.640625 -105.785156 253.679688 -95.210938 297.796875 -97.921875 C 354.523438 -101.066406 398.191406 -120.875 428.796875 -157.34375 L 428.796875 -31.734375 C 385.128906 -6.078125 337.632812 6.75 286.3125 6.75 Z M 286.3125 6.75 "/></g></g><g style="fill:#f9e223;fill-opacity:0.4;"><g transform="translate(493.899018, 621.727594)"><path style="stroke:none" d="M 24.984375 -459.1875 L 114.796875 -459.1875 L 354.515625 -190.421875 L 354.515625 -459.1875 L 468.640625 -459.1875 L 468.640625 0 L 378.828125 0 L 139.109375 -268.765625 L 139.109375 0 L 24.984375 0 Z M 24.984375 -459.1875 "/></g></g><g style="fill:#f9e223;fill-opacity:0.4;"><g transform="translate(977.394783, 621.727594)"><path style="stroke:none" d="M 28.359375 -459.1875 L 142.484375 -459.1875 L 142.484375 -228.921875 C 142.484375 -188.398438 150.023438 -156.4375 165.109375 -133.03125 C 180.191406 -109.625 203.488281 -97.921875 235 -97.921875 C 266.507812 -97.921875 290.140625 -109.738281 305.890625 -133.375 C 321.648438 -157.007812 329.53125 -188.859375 329.53125 -228.921875 L 329.53125 -459.1875 L 442.984375 -459.1875 L 442.984375 -226.890625 C 442.984375 -147.660156 424.410156 -88.910156 387.265625 -50.640625 C 350.128906 -12.378906 299.597656 6.75 235.671875 6.75 C 172.191406 6.75 121.769531 -12.378906 84.40625 -50.640625 C 47.039062 -88.910156 28.359375 -147.660156 28.359375 -226.890625 Z M 28.359375 -459.1875 "/></g></g><g style="fill:#f9e223;fill-opacity:1;"><g transform="translate(20.400889, 591.884078)"><path style="stroke:none" d="M 286.3125 6.75 C 213.382812 6.75 151.035156 -16.320312 99.265625 -62.46875 C 47.492188 -108.613281 21.609375 -164.320312 21.609375 -229.59375 C 21.609375 -294.875 47.039062 -350.582031 97.90625 -396.71875 C 148.78125 -442.863281 210.910156 -465.9375 284.296875 -465.9375 C 341.015625 -465.9375 387.832031 -454.910156 424.75 -432.859375 L 424.75 -307.25 C 392.789062 -342.363281 350.472656 -360.375 297.796875 -361.28125 C 253.234375 -362.175781 214.96875 -350.691406 183 -326.828125 C 151.039062 -302.972656 135.285156 -270.5625 135.734375 -229.59375 C 135.734375 -186.820312 151.710938 -153.503906 183.671875 -129.640625 C 215.640625 -105.785156 253.679688 -95.210938 297.796875 -97.921875 C 354.523438 -101.066406 398.191406 -120.875 428.796875 -157.34375 L 428.796875 -31.734375 C 385.128906 -6.078125 337.632812 6.75 286.3125 6.75 Z M 286.3125 6.75 "/></g></g><g style="fill:#f9e223;fill-opacity:1;"><g transform="translate(464.055504, 591.884078)"><path style="stroke:none" d="M 24.984375 -459.1875 L 114.796875 -459.1875 L 354.515625 -190.421875 L 354.515625 -459.1875 L 468.640625 -459.1875 L 468.640625 0 L 378.828125 0 L 139.109375 -268.765625 L 139.109375 0 L 24.984375 0 Z M 24.984375 -459.1875 "/></g></g><g style="fill:#f9e223;fill-opacity:1;"><g transform="translate(947.551269, 591.884078)"><path style="stroke:none" d="M 28.359375 -459.1875 L 142.484375 -459.1875 L 142.484375 -228.921875 C 142.484375 -188.398438 150.023438 -156.4375 165.109375 -133.03125 C 180.191406 -109.625 203.488281 -97.921875 235 -97.921875 C 266.507812 -97.921875 290.140625 -109.738281 305.890625 -133.375 C 321.648438 -157.007812 329.53125 -188.859375 329.53125 -228.921875 L 329.53125 -459.1875 L 442.984375 -459.1875 L 442.984375 -226.890625 C 442.984375 -147.660156 424.410156 -88.910156 387.265625 -50.640625 C 350.128906 -12.378906 299.597656 6.75 235.671875 6.75 C 172.191406 6.75 121.769531 -12.378906 84.40625 -50.640625 C 47.039062 -88.910156 28.359375 -147.660156 28.359375 -226.890625 Z M 28.359375 -459.1875 "/></g></g></g></svg>